<svg xmlns="http://www.w3.org/2000/svg" viewBox="0 0 100 100">
<rect width="100" height="100" fill="#141412"/>
<g transform="translate(19.00,63.85) scale(0.04039)" fill="#FAFAF8">
<path d="M9.555488601326942 0.0 293.4259178638458 -686.4313096553087H469.6378904134035L754.1857136338949 0.0H596.7060924768448L542.0803084671497 -137.7362645417452H213.61831702291965L159.01862081885338 0.0ZM259.98252759873867 -255.7434477955103H495.12131974101067L427.29040601849556 -429.78825630247593Q423.1025913953781 -440.11521473526955 416.80133348703384 -456.97037740796804Q410.5000755786896 -473.82554008066654 403.83403288573027 -493.1833259910345Q397.16799019277096 -512.5411119014025 390.9427962601185 -530.9128723144531Q384.717602327466 -549.2846327275038 380.6558278501034 -561.1812951117754H374.71409752964973Q368.237621858716 -541.4247901439667 359.2741900905967 -515.7769887894392Q350.31075832247734 -490.1291874349117 341.87166196107864 -466.84353690594435Q333.43256559967995 -443.55788637697697 327.8134413212538 -429.5743538737297Z M844.2745437771082 0.0V-686.4313096553087H1256.3324290961027Q1331.7994254231453 -686.4313096553087 1381.2138223424554 -659.1130452826619Q1430.6282192617655 -631.7947809100151 1455.3091180175543 -583.4182468578219Q1479.990016773343 -535.0417128056288 1479.990016773343 -472.0338770598173Q1479.990016773343 -406.3477318286896 1449.573503419757 -354.3677513599396Q1419.1569900661707 -302.3877708911896 1359.8327618688345 -274.96255530416965L1501.9535340964794 0.0H1341.4190586805344L1217.7279223650694 -249.83468410372734H989.550708964467V0.0ZM989.550708964467 -367.7235648781061H1233.7610789984465Q1280.5626606047153 -367.7235648781061 1306.2895622476935 -395.4004671052098Q1332.0164638906717 -423.07736933231354 1332.0164638906717 -470.43992505967617Q1332.0164638906717 -501.2798719853163 1320.6390929669142 -522.6063619330525Q1309.2617220431566 -543.9328518807888 1287.4409130886197 -555.2880635932088Q1265.6201041340828 -566.6432753056288 1233.7610789984465 -566.6432753056288H989.550708964467Z"/>
</g>
</svg>